<svg xmlns="http://www.w3.org/2000/svg" viewBox="0 0 3000 426"><defs><style>.cls-1{fill:#fff;}</style></defs><title>curve-invers</title><g id="Layer_3" data-name="Layer 3"><path class="cls-1" d="M150.76,369C94.83,377.66,43.1,386.87-4,396.55V369Z" transform="translate(4 -369)"/><path class="cls-1" d="M2996,369v25.72c-44.66-9-93.37-17.61-145.76-25.72Z" transform="translate(4 -369)"/><path class="cls-1" d="M150.76,369C94.83,377.66,43.1,386.87-4,396.55V369Z" transform="translate(4 -369)"/><path class="cls-1" d="M2996,369v25.72c-44.66-9-93.37-17.61-145.76-25.72Z" transform="translate(4 -369)"/><path class="cls-1" d="M2996,394.72V685.28C2667.44,751.59,2120.14,795,1500.5,795,875.16,795,323.51,750.79-4,683.45V396.55c47.1-9.68,98.83-18.89,154.76-27.55H2850.24C2902.63,377.11,2951.34,385.7,2996,394.72Z" transform="translate(4 -369)"/></g></svg>