<svg width="159" height="133" xmlns="http://www.w3.org/2000/svg">
<g fill="#fba311" fill-rule="evenodd">
<path d="M1.5 3a1.5 1.5 0 1 1 0-3 1.5 1.5 0 0 1 0 3zm13 0a1.5 1.5 0 1 1 0-3 1.5 1.5 0 0 1 0 3zm13 0a1.5 1.5 0 1 1 0-3 1.5 1.5 0 0 1 0 3zm13 0a1.5 1.5 0 1 1 0-3 1.5 1.5 0 0 1 0 3zm13 0a1.5 1.5 0 1 1 0-3 1.5 1.5 0 0 1 0 3zm13 0a1.5 1.5 0 1 1 0-3 1.5 1.5 0 0 1 0 3zm13 0a1.5 1.5 0 1 1 0-3 1.5 1.5 0 0 1 0 3zm-78 13a1.5 1.5 0 1 1 0-3 1.5 1.5 0 0 1 0 3zm13 0a1.5 1.5 0 1 1 0-3 1.5 1.5 0 0 1 0 3zm13 0a1.5 1.5 0 1 1 0-3 1.5 1.5 0 0 1 0 3zm13 0a1.5 1.5 0 1 1 0-3 1.5 1.5 0 0 1 0 3zm13 0a1.5 1.5 0 1 1 0-3 1.5 1.5 0 0 1 0 3zm13 0a1.5 1.5 0 1 1 0-3 1.5 1.5 0 0 1 0 3zm13 0a1.5 1.5 0 1 1 0-3 1.5 1.5 0 0 1 0 3zm-78 13a1.5 1.5 0 1 1 0-3 1.5 1.5 0 0 1 0 3zm13 0a1.5 1.5 0 1 1 0-3 1.5 1.5 0 0 1 0 3zm13 0a1.5 1.5 0 1 1 0-3 1.5 1.5 0 0 1 0 3zm13 0a1.5 1.5 0 1 1 0-3 1.5 1.5 0 0 1 0 3zm13 0a1.5 1.5 0 1 1 0-3 1.5 1.5 0 0 1 0 3zm13 0a1.5 1.5 0 1 1 0-3 1.5 1.5 0 0 1 0 3zm13 0a1.5 1.5 0 1 1 0-3 1.5 1.5 0 0 1 0 3zm-78 13a1.5 1.5 0 1 1 0-3 1.5 1.5 0 0 1 0 3zm13 0a1.5 1.5 0 1 1 0-3 1.5 1.5 0 0 1 0 3zm13 0a1.5 1.5 0 1 1 0-3 1.5 1.5 0 0 1 0 3zm13 0a1.5 1.5 0 1 1 0-3 1.5 1.5 0 0 1 0 3zm13 0a1.5 1.5 0 1 1 0-3 1.5 1.5 0 0 1 0 3zm13 0a1.5 1.5 0 1 1 0-3 1.5 1.5 0 0 1 0 3zm13 0a1.5 1.5 0 1 1 0-3 1.5 1.5 0 0 1 0 3zm-78 13a1.5 1.5 0 1 1 0-3 1.5 1.5 0 0 1 0 3zm13 0a1.5 1.5 0 1 1 0-3 1.5 1.5 0 0 1 0 3zm13 0a1.5 1.5 0 1 1 0-3 1.5 1.5 0 0 1 0 3zm13 0a1.5 1.5 0 1 1 0-3 1.5 1.5 0 0 1 0 3zm13 0a1.5 1.5 0 1 1 0-3 1.5 1.5 0 0 1 0 3zm13 0a1.5 1.5 0 1 1 0-3 1.5 1.5 0 0 1 0 3zm13 0a1.5 1.5 0 1 1 0-3 1.5 1.5 0 0 1 0 3zm-78 13a1.5 1.5 0 1 1 0-3 1.5 1.5 0 0 1 0 3zm13 0a1.5 1.5 0 1 1 0-3 1.5 1.5 0 0 1 0 3zm13 0a1.5 1.5 0 1 1 0-3 1.5 1.5 0 0 1 0 3zm13 0a1.5 1.5 0 1 1 0-3 1.5 1.5 0 0 1 0 3zm13 0a1.5 1.5 0 1 1 0-3 1.5 1.5 0 0 1 0 3zm13 0a1.5 1.5 0 1 1 0-3 1.5 1.5 0 0 1 0 3zm13 0a1.5 1.5 0 1 1 0-3 1.5 1.5 0 0 1 0 3z"/>
<path d="M1.5 68a1.5 1.5 0 1 1 0-3 1.5 1.5 0 0 1 0 3zm13 0a1.5 1.5 0 1 1 0-3 1.5 1.5 0 0 1 0 3zm13 0a1.5 1.5 0 1 1 0-3 1.5 1.5 0 0 1 0 3zm13 0a1.5 1.5 0 1 1 0-3 1.5 1.5 0 0 1 0 3zm13 0a1.5 1.5 0 1 1 0-3 1.5 1.5 0 0 1 0 3zm13 0a1.5 1.5 0 1 1 0-3 1.5 1.5 0 0 1 0 3zm13 0a1.5 1.5 0 1 1 0-3 1.5 1.5 0 0 1 0 3zm-78 13a1.5 1.5 0 1 1 0-3 1.5 1.5 0 0 1 0 3zm13 0a1.5 1.5 0 1 1 0-3 1.5 1.5 0 0 1 0 3zm13 0a1.5 1.5 0 1 1 0-3 1.5 1.5 0 0 1 0 3zm13 0a1.5 1.5 0 1 1 0-3 1.5 1.5 0 0 1 0 3zm13 0a1.5 1.5 0 1 1 0-3 1.5 1.5 0 0 1 0 3zm13 0a1.5 1.5 0 1 1 0-3 1.5 1.5 0 0 1 0 3zm13 0a1.5 1.5 0 1 1 0-3 1.5 1.5 0 0 1 0 3zm-78 13a1.5 1.5 0 1 1 0-3 1.5 1.5 0 0 1 0 3zm13 0a1.5 1.5 0 1 1 0-3 1.5 1.5 0 0 1 0 3zm13 0a1.5 1.5 0 1 1 0-3 1.5 1.5 0 0 1 0 3zm13 0a1.5 1.5 0 1 1 0-3 1.5 1.5 0 0 1 0 3zm13 0a1.5 1.5 0 1 1 0-3 1.5 1.5 0 0 1 0 3zm13 0a1.5 1.5 0 1 1 0-3 1.5 1.5 0 0 1 0 3zm13 0a1.5 1.5 0 1 1 0-3 1.5 1.5 0 0 1 0 3zm-78 13a1.5 1.5 0 1 1 0-3 1.5 1.5 0 0 1 0 3zm13 0a1.5 1.5 0 1 1 0-3 1.5 1.5 0 0 1 0 3zm13 0a1.5 1.5 0 1 1 0-3 1.5 1.5 0 0 1 0 3zm13 0a1.5 1.5 0 1 1 0-3 1.5 1.5 0 0 1 0 3zm13 0a1.5 1.5 0 1 1 0-3 1.5 1.5 0 0 1 0 3zm13 0a1.5 1.5 0 1 1 0-3 1.5 1.5 0 0 1 0 3zm13 0a1.5 1.5 0 1 1 0-3 1.5 1.5 0 0 1 0 3zm-78 13a1.5 1.5 0 1 1 0-3 1.5 1.5 0 0 1 0 3zm13 0a1.5 1.5 0 1 1 0-3 1.5 1.5 0 0 1 0 3zm13 0a1.5 1.5 0 1 1 0-3 1.5 1.5 0 0 1 0 3zm13 0a1.5 1.5 0 1 1 0-3 1.5 1.5 0 0 1 0 3zm13 0a1.5 1.5 0 1 1 0-3 1.5 1.5 0 0 1 0 3zm13 0a1.5 1.5 0 1 1 0-3 1.5 1.5 0 0 1 0 3zm13 0a1.5 1.5 0 1 1 0-3 1.5 1.5 0 0 1 0 3zm-78 13a1.5 1.5 0 1 1 0-3 1.5 1.5 0 0 1 0 3zm13 0a1.5 1.5 0 1 1 0-3 1.5 1.5 0 0 1 0 3zm13 0a1.5 1.5 0 1 1 0-3 1.5 1.5 0 0 1 0 3zm13 0a1.5 1.5 0 1 1 0-3 1.5 1.5 0 0 1 0 3zm13 0a1.5 1.5 0 1 1 0-3 1.5 1.5 0 0 1 0 3zm13 0a1.5 1.5 0 1 1 0-3 1.5 1.5 0 0 1 0 3zm13 0a1.5 1.5 0 1 1 0-3 1.5 1.5 0 0 1 0 3z"/>
<path d="M79.5 3a1.5 1.5 0 1 1 0-3 1.5 1.5 0 0 1 0 3zm13 0a1.5 1.5 0 1 1 0-3 1.5 1.5 0 0 1 0 3zm13 0a1.5 1.5 0 1 1 0-3 1.5 1.5 0 0 1 0 3zm13 0a1.5 1.5 0 1 1 0-3 1.5 1.5 0 0 1 0 3zm13 0a1.5 1.5 0 1 1 0-3 1.5 1.5 0 0 1 0 3zm13 0a1.5 1.5 0 1 1 0-3 1.5 1.5 0 0 1 0 3zm13 0a1.5 1.5 0 1 1 0-3 1.5 1.5 0 0 1 0 3zm-78 13a1.5 1.5 0 1 1 0-3 1.5 1.5 0 0 1 0 3zm13 0a1.5 1.5 0 1 1 0-3 1.5 1.5 0 0 1 0 3zm13 0a1.5 1.5 0 1 1 0-3 1.5 1.5 0 0 1 0 3zm13 0a1.5 1.5 0 1 1 0-3 1.5 1.5 0 0 1 0 3zm13 0a1.5 1.5 0 1 1 0-3 1.5 1.5 0 0 1 0 3zm13 0a1.5 1.5 0 1 1 0-3 1.5 1.5 0 0 1 0 3zm13 0a1.5 1.5 0 1 1 0-3 1.5 1.5 0 0 1 0 3zm-78 13a1.5 1.5 0 1 1 0-3 1.5 1.5 0 0 1 0 3zm13 0a1.5 1.5 0 1 1 0-3 1.5 1.5 0 0 1 0 3zm13 0a1.5 1.5 0 1 1 0-3 1.5 1.5 0 0 1 0 3zm13 0a1.5 1.5 0 1 1 0-3 1.5 1.5 0 0 1 0 3zm13 0a1.5 1.5 0 1 1 0-3 1.5 1.5 0 0 1 0 3zm13 0a1.5 1.5 0 1 1 0-3 1.5 1.5 0 0 1 0 3zm13 0a1.5 1.5 0 1 1 0-3 1.5 1.5 0 0 1 0 3zm-78 13a1.5 1.5 0 1 1 0-3 1.5 1.5 0 0 1 0 3zm13 0a1.5 1.5 0 1 1 0-3 1.5 1.5 0 0 1 0 3zm13 0a1.5 1.5 0 1 1 0-3 1.5 1.5 0 0 1 0 3zm13 0a1.5 1.5 0 1 1 0-3 1.5 1.5 0 0 1 0 3zm13 0a1.5 1.5 0 1 1 0-3 1.5 1.5 0 0 1 0 3zm13 0a1.5 1.5 0 1 1 0-3 1.5 1.5 0 0 1 0 3zm13 0a1.5 1.5 0 1 1 0-3 1.5 1.5 0 0 1 0 3zm-78 13a1.5 1.5 0 1 1 0-3 1.5 1.5 0 0 1 0 3zm13 0a1.5 1.5 0 1 1 0-3 1.5 1.5 0 0 1 0 3zm13 0a1.5 1.5 0 1 1 0-3 1.5 1.5 0 0 1 0 3zm13 0a1.5 1.5 0 1 1 0-3 1.5 1.5 0 0 1 0 3zm13 0a1.5 1.5 0 1 1 0-3 1.5 1.5 0 0 1 0 3zm13 0a1.5 1.5 0 1 1 0-3 1.5 1.5 0 0 1 0 3zm13 0a1.5 1.5 0 1 1 0-3 1.5 1.5 0 0 1 0 3zm-78 13a1.5 1.5 0 1 1 0-3 1.5 1.5 0 0 1 0 3zm13 0a1.5 1.5 0 1 1 0-3 1.5 1.5 0 0 1 0 3zm13 0a1.5 1.5 0 1 1 0-3 1.5 1.5 0 0 1 0 3zm13 0a1.5 1.5 0 1 1 0-3 1.5 1.5 0 0 1 0 3zm13 0a1.5 1.5 0 1 1 0-3 1.5 1.5 0 0 1 0 3zm13 0a1.5 1.5 0 1 1 0-3 1.5 1.5 0 0 1 0 3zm13 0a1.5 1.5 0 1 1 0-3 1.5 1.5 0 0 1 0 3z"/>
<path d="M79.5 68a1.5 1.5 0 1 1 0-3 1.5 1.5 0 0 1 0 3zm13 0a1.5 1.5 0 1 1 0-3 1.5 1.5 0 0 1 0 3zm13 0a1.5 1.5 0 1 1 0-3 1.5 1.5 0 0 1 0 3zm13 0a1.5 1.5 0 1 1 0-3 1.5 1.5 0 0 1 0 3zm13 0a1.5 1.5 0 1 1 0-3 1.5 1.5 0 0 1 0 3zm13 0a1.5 1.5 0 1 1 0-3 1.5 1.5 0 0 1 0 3zm13 0a1.5 1.5 0 1 1 0-3 1.5 1.5 0 0 1 0 3zm-78 13a1.5 1.5 0 1 1 0-3 1.5 1.5 0 0 1 0 3zm13 0a1.5 1.5 0 1 1 0-3 1.5 1.5 0 0 1 0 3zm13 0a1.5 1.5 0 1 1 0-3 1.5 1.5 0 0 1 0 3zm13 0a1.5 1.5 0 1 1 0-3 1.5 1.5 0 0 1 0 3zm13 0a1.5 1.5 0 1 1 0-3 1.5 1.5 0 0 1 0 3zm13 0a1.5 1.5 0 1 1 0-3 1.5 1.5 0 0 1 0 3zm13 0a1.5 1.5 0 1 1 0-3 1.5 1.5 0 0 1 0 3zm-78 13a1.5 1.5 0 1 1 0-3 1.5 1.5 0 0 1 0 3zm13 0a1.5 1.5 0 1 1 0-3 1.5 1.5 0 0 1 0 3zm13 0a1.5 1.5 0 1 1 0-3 1.5 1.5 0 0 1 0 3zm13 0a1.5 1.5 0 1 1 0-3 1.5 1.5 0 0 1 0 3zm13 0a1.5 1.5 0 1 1 0-3 1.5 1.5 0 0 1 0 3zm13 0a1.5 1.5 0 1 1 0-3 1.5 1.5 0 0 1 0 3zm13 0a1.5 1.5 0 1 1 0-3 1.5 1.5 0 0 1 0 3zm-78 13a1.5 1.5 0 1 1 0-3 1.5 1.5 0 0 1 0 3zm13 0a1.5 1.5 0 1 1 0-3 1.5 1.5 0 0 1 0 3zm13 0a1.5 1.5 0 1 1 0-3 1.5 1.5 0 0 1 0 3zm13 0a1.5 1.5 0 1 1 0-3 1.5 1.5 0 0 1 0 3zm13 0a1.5 1.5 0 1 1 0-3 1.5 1.5 0 0 1 0 3zm13 0a1.5 1.5 0 1 1 0-3 1.5 1.5 0 0 1 0 3zm13 0a1.5 1.5 0 1 1 0-3 1.5 1.5 0 0 1 0 3zm-78 13a1.5 1.5 0 1 1 0-3 1.5 1.5 0 0 1 0 3zm13 0a1.5 1.5 0 1 1 0-3 1.5 1.5 0 0 1 0 3zm13 0a1.5 1.5 0 1 1 0-3 1.5 1.5 0 0 1 0 3zm13 0a1.5 1.5 0 1 1 0-3 1.5 1.5 0 0 1 0 3zm13 0a1.5 1.5 0 1 1 0-3 1.5 1.5 0 0 1 0 3zm13 0a1.5 1.5 0 1 1 0-3 1.5 1.5 0 0 1 0 3zm13 0a1.5 1.5 0 1 1 0-3 1.5 1.5 0 0 1 0 3zm-78 13a1.5 1.5 0 1 1 0-3 1.5 1.5 0 0 1 0 3zm13 0a1.5 1.5 0 1 1 0-3 1.5 1.5 0 0 1 0 3zm13 0a1.5 1.5 0 1 1 0-3 1.5 1.5 0 0 1 0 3zm13 0a1.5 1.5 0 1 1 0-3 1.5 1.5 0 0 1 0 3zm13 0a1.5 1.5 0 1 1 0-3 1.5 1.5 0 0 1 0 3zm13 0a1.5 1.5 0 1 1 0-3 1.5 1.5 0 0 1 0 3zm13 0a1.5 1.5 0 1 1 0-3 1.5 1.5 0 0 1 0 3z"/></g></svg>